<svg width="208" height="78" viewBox="0 0 208 78" fill="none" xmlns="http://www.w3.org/2000/svg">
<path fill-rule="evenodd" clip-rule="evenodd" d="M193.257 31C193.257 42.55 183.84 52 172.329 52H33.6848C22.1747 52 12.7573 42.55 12.7573 31C12.7573 19.45 22.1747 10 33.6848 10H172.329C183.97 10 193.257 19.45 193.257 31Z" fill="#070707"/>
<g opacity="0.1" filter="url(#filter0_f_1_127)">
<path fill-rule="evenodd" clip-rule="evenodd" d="M187.24 39C187.24 49.45 178.555 58 167.941 58H40.0793C29.4645 58 20.7795 49.45 20.7795 39C20.7795 28.55 29.4645 20 40.0793 20H167.941C178.676 20 187.24 28.55 187.24 39Z" fill="#070707"/>
</g>
<path d="M46.6034 37.252C45.3554 37.252 44.3054 36.976 43.4534 36.424C42.6014 35.86 42.0014 35.098 41.6534 34.138L43.7774 32.896C44.2694 34.18 45.2354 34.822 46.6754 34.822C47.3714 34.822 47.8814 34.696 48.2054 34.444C48.5294 34.192 48.6914 33.874 48.6914 33.49C48.6914 33.046 48.4934 32.704 48.0974 32.464C47.7014 32.212 46.9934 31.942 45.9734 31.654C45.4094 31.486 44.9294 31.318 44.5334 31.15C44.1494 30.982 43.7594 30.76 43.3634 30.484C42.9794 30.196 42.6854 29.836 42.4814 29.404C42.2774 28.972 42.1754 28.468 42.1754 27.892C42.1754 26.752 42.5774 25.846 43.3814 25.174C44.1974 24.49 45.1754 24.148 46.3154 24.148C47.3354 24.148 48.2294 24.4 48.9974 24.904C49.7774 25.396 50.3834 26.086 50.8154 26.974L48.7274 28.18C48.2234 27.1 47.4194 26.56 46.3154 26.56C45.7994 26.56 45.3914 26.68 45.0914 26.92C44.8034 27.148 44.6594 27.448 44.6594 27.82C44.6594 28.216 44.8214 28.54 45.1454 28.792C45.4814 29.032 46.1174 29.296 47.0534 29.584C47.4374 29.704 47.7254 29.8 47.9174 29.872C48.1214 29.932 48.3914 30.034 48.7274 30.178C49.0754 30.31 49.3394 30.436 49.5194 30.556C49.7114 30.676 49.9274 30.838 50.1674 31.042C50.4074 31.246 50.5874 31.456 50.7074 31.672C50.8394 31.888 50.9474 32.152 51.0314 32.464C51.1274 32.764 51.1754 33.094 51.1754 33.454C51.1754 34.618 50.7494 35.542 49.8974 36.226C49.0574 36.91 47.9594 37.252 46.6034 37.252ZM54.8956 33.454C55.2076 34.582 56.0536 35.146 57.4336 35.146C58.3216 35.146 58.9936 34.846 59.4496 34.246L61.3216 35.326C60.4336 36.61 59.1256 37.252 57.3976 37.252C55.9096 37.252 54.7156 36.802 53.8156 35.902C52.9156 35.002 52.4656 33.868 52.4656 32.5C52.4656 31.144 52.9096 30.016 53.7976 29.116C54.6856 28.204 55.8256 27.748 57.2176 27.748C58.5376 27.748 59.6236 28.204 60.4756 29.116C61.3396 30.028 61.7716 31.156 61.7716 32.5C61.7716 32.8 61.7416 33.118 61.6816 33.454H54.8956ZM54.8596 31.654H59.4496C59.3176 31.042 59.0416 30.586 58.6216 30.286C58.2136 29.986 57.7456 29.836 57.2176 29.836C56.5936 29.836 56.0776 29.998 55.6696 30.322C55.2616 30.634 54.9916 31.078 54.8596 31.654ZM68.3966 27.748C69.3806 27.748 70.1906 28.078 70.8266 28.738C71.4746 29.398 71.7986 30.31 71.7986 31.474V37H69.4766V31.762C69.4766 31.162 69.3146 30.706 68.9906 30.394C68.6666 30.07 68.2346 29.908 67.6946 29.908C67.0946 29.908 66.6146 30.094 66.2546 30.466C65.8946 30.838 65.7146 31.396 65.7146 32.14V37H63.3926V28H65.7146V29.008C66.2786 28.168 67.1726 27.748 68.3966 27.748ZM80.6033 24.4H82.9253V37H80.6033V35.938C79.9193 36.814 78.9473 37.252 77.6873 37.252C76.4753 37.252 75.4372 36.796 74.5732 35.884C73.7212 34.96 73.2952 33.832 73.2952 32.5C73.2952 31.168 73.7212 30.046 74.5732 29.134C75.4372 28.21 76.4753 27.748 77.6873 27.748C78.9473 27.748 79.9193 28.186 80.6033 29.062V24.4ZM76.3192 34.336C76.7992 34.804 77.3992 35.038 78.1192 35.038C78.8392 35.038 79.4333 34.804 79.9013 34.336C80.3693 33.856 80.6033 33.244 80.6033 32.5C80.6033 31.756 80.3693 31.15 79.9013 30.682C79.4333 30.202 78.8392 29.962 78.1192 29.962C77.3992 29.962 76.7992 30.202 76.3192 30.682C75.8512 31.15 75.6172 31.756 75.6172 32.5C75.6172 33.244 75.8512 33.856 76.3192 34.336ZM99.5028 27.748C100.535 27.748 101.357 28.084 101.969 28.756C102.593 29.428 102.905 30.328 102.905 31.456V37H100.583V31.618C100.583 31.078 100.451 30.658 100.187 30.358C99.9228 30.058 99.5508 29.908 99.0708 29.908C98.5428 29.908 98.1288 30.082 97.8288 30.43C97.5408 30.778 97.3968 31.282 97.3968 31.942V37H95.0748V31.618C95.0748 31.078 94.9428 30.658 94.6788 30.358C94.4148 30.058 94.0428 29.908 93.5628 29.908C93.0468 29.908 92.6328 30.082 92.3208 30.43C92.0208 30.778 91.8708 31.282 91.8708 31.942V37H89.5488V28H91.8708V28.954C92.4108 28.15 93.2448 27.748 94.3728 27.748C95.4768 27.748 96.2928 28.18 96.8208 29.044C97.4208 28.18 98.3148 27.748 99.5028 27.748ZM106.839 33.454C107.151 34.582 107.997 35.146 109.377 35.146C110.265 35.146 110.937 34.846 111.393 34.246L113.265 35.326C112.377 36.61 111.069 37.252 109.341 37.252C107.853 37.252 106.659 36.802 105.759 35.902C104.859 35.002 104.409 33.868 104.409 32.5C104.409 31.144 104.853 30.016 105.741 29.116C106.629 28.204 107.769 27.748 109.161 27.748C110.481 27.748 111.567 28.204 112.419 29.116C113.283 30.028 113.715 31.156 113.715 32.5C113.715 32.8 113.685 33.118 113.625 33.454H106.839ZM106.803 31.654H111.393C111.261 31.042 110.985 30.586 110.565 30.286C110.157 29.986 109.689 29.836 109.161 29.836C108.537 29.836 108.021 29.998 107.613 30.322C107.205 30.634 106.935 31.078 106.803 31.654ZM117.126 30.556C117.126 30.796 117.282 30.994 117.594 31.15C117.918 31.294 118.308 31.426 118.764 31.546C119.22 31.654 119.676 31.798 120.132 31.978C120.588 32.146 120.972 32.434 121.284 32.842C121.608 33.25 121.77 33.76 121.77 34.372C121.77 35.296 121.422 36.01 120.726 36.514C120.042 37.006 119.184 37.252 118.152 37.252C116.304 37.252 115.044 36.538 114.372 35.11L116.388 33.976C116.652 34.756 117.24 35.146 118.152 35.146C118.98 35.146 119.394 34.888 119.394 34.372C119.394 34.132 119.232 33.94 118.908 33.796C118.596 33.64 118.212 33.502 117.756 33.382C117.3 33.262 116.844 33.112 116.388 32.932C115.932 32.752 115.542 32.47 115.218 32.086C114.906 31.69 114.75 31.198 114.75 30.61C114.75 29.722 115.074 29.026 115.722 28.522C116.382 28.006 117.198 27.748 118.17 27.748C118.902 27.748 119.568 27.916 120.168 28.252C120.768 28.576 121.242 29.044 121.59 29.656L119.61 30.736C119.322 30.124 118.842 29.818 118.17 29.818C117.87 29.818 117.618 29.884 117.414 30.016C117.222 30.148 117.126 30.328 117.126 30.556ZM124.931 30.556C124.931 30.796 125.087 30.994 125.399 31.15C125.723 31.294 126.113 31.426 126.569 31.546C127.025 31.654 127.481 31.798 127.937 31.978C128.393 32.146 128.777 32.434 129.089 32.842C129.413 33.25 129.575 33.76 129.575 34.372C129.575 35.296 129.227 36.01 128.531 36.514C127.847 37.006 126.989 37.252 125.957 37.252C124.109 37.252 122.849 36.538 122.177 35.11L124.193 33.976C124.457 34.756 125.045 35.146 125.957 35.146C126.785 35.146 127.199 34.888 127.199 34.372C127.199 34.132 127.037 33.94 126.713 33.796C126.401 33.64 126.017 33.502 125.561 33.382C125.105 33.262 124.649 33.112 124.193 32.932C123.737 32.752 123.347 32.47 123.023 32.086C122.711 31.69 122.555 31.198 122.555 30.61C122.555 29.722 122.879 29.026 123.527 28.522C124.187 28.006 125.003 27.748 125.975 27.748C126.707 27.748 127.373 27.916 127.973 28.252C128.573 28.576 129.047 29.044 129.395 29.656L127.415 30.736C127.127 30.124 126.647 29.818 125.975 29.818C125.675 29.818 125.423 29.884 125.219 30.016C125.027 30.148 124.931 30.328 124.931 30.556ZM137.785 28H140.107V37H137.785V35.938C137.089 36.814 136.111 37.252 134.851 37.252C133.651 37.252 132.619 36.796 131.755 35.884C130.903 34.96 130.477 33.832 130.477 32.5C130.477 31.168 130.903 30.046 131.755 29.134C132.619 28.21 133.651 27.748 134.851 27.748C136.111 27.748 137.089 28.186 137.785 29.062V28ZM133.501 34.336C133.969 34.804 134.563 35.038 135.283 35.038C136.003 35.038 136.597 34.804 137.065 34.336C137.545 33.856 137.785 33.244 137.785 32.5C137.785 31.756 137.545 31.15 137.065 30.682C136.597 30.202 136.003 29.962 135.283 29.962C134.563 29.962 133.969 30.202 133.501 30.682C133.033 31.15 132.799 31.756 132.799 32.5C132.799 33.244 133.033 33.856 133.501 34.336ZM149.107 28H151.375V36.568C151.375 37.96 150.913 39.022 149.989 39.754C149.077 40.486 147.973 40.852 146.677 40.852C145.705 40.852 144.847 40.666 144.103 40.294C143.371 39.922 142.807 39.376 142.411 38.656L144.391 37.522C144.847 38.362 145.633 38.782 146.749 38.782C147.481 38.782 148.057 38.59 148.477 38.206C148.897 37.822 149.107 37.276 149.107 36.568V35.596C148.423 36.508 147.463 36.964 146.227 36.964C144.955 36.964 143.887 36.52 143.023 35.632C142.171 34.732 141.745 33.64 141.745 32.356C141.745 31.084 142.177 29.998 143.041 29.098C143.905 28.198 144.967 27.748 146.227 27.748C147.463 27.748 148.423 28.204 149.107 29.116V28ZM144.769 34.138C145.249 34.594 145.855 34.822 146.587 34.822C147.319 34.822 147.919 34.594 148.387 34.138C148.867 33.67 149.107 33.076 149.107 32.356C149.107 31.648 148.867 31.066 148.387 30.61C147.919 30.142 147.319 29.908 146.587 29.908C145.855 29.908 145.249 30.142 144.769 30.61C144.301 31.066 144.067 31.648 144.067 32.356C144.067 33.076 144.301 33.67 144.769 34.138ZM155.442 33.454C155.754 34.582 156.6 35.146 157.98 35.146C158.868 35.146 159.54 34.846 159.996 34.246L161.868 35.326C160.98 36.61 159.672 37.252 157.944 37.252C156.456 37.252 155.262 36.802 154.362 35.902C153.462 35.002 153.012 33.868 153.012 32.5C153.012 31.144 153.456 30.016 154.344 29.116C155.232 28.204 156.372 27.748 157.764 27.748C159.084 27.748 160.17 28.204 161.022 29.116C161.886 30.028 162.318 31.156 162.318 32.5C162.318 32.8 162.288 33.118 162.228 33.454H155.442ZM155.406 31.654H159.996C159.864 31.042 159.588 30.586 159.168 30.286C158.76 29.986 158.292 29.836 157.764 29.836C157.14 29.836 156.624 29.998 156.216 30.322C155.808 30.634 155.538 31.078 155.406 31.654Z" fill="white"/>
<defs>
<filter id="filter0_f_1_127" x="0.779541" y="0" width="206.461" height="78" filterUnits="userSpaceOnUse" color-interpolation-filters="sRGB">
<feFlood flood-opacity="0" result="BackgroundImageFix"/>
<feBlend mode="normal" in="SourceGraphic" in2="BackgroundImageFix" result="shape"/>
<feGaussianBlur stdDeviation="10" result="effect1_foregroundBlur_1_127"/>
</filter>
</defs>
</svg>
